<svg width="1024" height="1024" xmlns="http://www.w3.org/2000/svg" p-id="31729" version="1.1" class="icon" t="1764017023800">

 <g>
  <title>Layer 1</title>
  <path stroke="null" id="svg_1" p-id="31730" fill="#415FFF" d="m767.89515,-0.2808c141.20042,0 255.66553,114.46511 255.66553,255.66553l0,511.33106c0,141.20041 -114.46511,255.66552 -255.66553,255.66552l-511.33104,0c-141.20042,0 -255.66553,-114.46511 -255.66553,-255.66552l0,-511.33106c0,-141.20042 114.46511,-255.66553 255.66553,-255.66553l511.33104,0zm-302.31193,463.00685l-25.06892,0c-5.82552,0 -8.47349,4.42164 -4.76633,9.90361l85.79974,128.74585c13.23983,19.27765 23.12633,27.23523 45.01768,27.23523s31.60209,-7.78181 45.01882,-27.23523l85.79975,-128.74585c3.70716,-5.48197 1.05919,-9.90361 -4.76633,-9.90361l-25.42274,0c-10.76876,0 -12.88714,1.76912 -17.12388,7.95873c-4.23789,6.0127 -75.9144,114.42173 -75.9144,114.42173c-2.29414,3.35904 -4.76634,4.59741 -7.76698,4.59741c-3.00179,0 -5.47285,-1.41529 -7.76812,-4.59856c0,0 -71.85344,-108.40788 -75.91327,-114.42173c-4.06096,-6.01156 -6.35625,-7.95759 -17.12502,-7.95759zm407.46122,-6.0127l-77.50318,0c-80.50268,0 -87.74121,65.78821 -87.74121,85.94927c0,20.15991 7.23853,85.94813 87.74121,85.94813l77.50318,0c80.50268,0 87.74121,-65.78821 87.74121,-85.94813c0,-20.16106 -7.23853,-85.94927 -87.74121,-85.94927zm-777.6706,6.0127l-25.07006,0c-6.53203,0 -8.47349,4.42164 -4.76634,9.90361c0.26023,0.38351 0.90168,1.34453 1.87298,2.79977l1.42556,2.13777c15.97339,23.96522 82.3243,123.80831 82.3243,123.80831c13.24097,19.27765 23.12746,27.23523 44.84305,27.23523c21.89136,0 31.60209,-7.78181 44.84191,-27.23523l85.62398,-128.74585c3.70715,-5.48197 1.58878,-9.90361 -4.76747,-9.90361l-24.7151,0c-10.76991,0 -12.88828,1.76912 -17.12502,7.95873c-4.06097,6.0127 -75.91326,114.42173 -75.91326,114.42173c-2.29414,3.35904 -4.76634,4.59741 -7.76812,4.59741s-5.47284,-1.41529 -7.76812,-4.59856c0,0 -71.67651,-108.40788 -75.91211,-114.42173c-4.06097,-6.01156 -6.3574,-7.95759 -17.12502,-7.95759l-0.00114,0zm295.35532,0l-18.35998,0c-7.41544,0 -10.41609,2.83058 -10.41609,10.43435l0,144.83908c0,7.42801 3.00179,10.43436 10.41609,10.43436l18.35998,0c7.41544,0 10.41608,-2.83058 10.41608,-10.43436l0,-144.83908c0,-7.428 -3.00178,-10.43435 -10.41608,-10.43435zm480.54845,33.24793c43.43004,0 47.13833,35.72355 47.13833,46.68863c0,10.96394 -3.88406,46.68749 -47.13833,46.68749l-77.14821,0c-43.4289,0 -47.13719,-35.72355 -47.13719,-46.68749c0,-10.96509 3.88406,-46.68863 47.13719,-46.68863l77.14935,0l-0.00114,0zm-481.60765,-97.97582c-5.82552,-6.0127 -10.59185,-6.0127 -16.59543,0l-12.71023,12.73305c-6.00358,5.83579 -6.00358,10.61126 0,16.62397l12.71023,12.73306c5.82666,6.0127 10.59299,6.0127 16.59543,0l12.71138,-12.73306c6.00242,-5.83579 6.00242,-10.61126 0,-16.62397l-12.71138,-12.73305z"/>
 </g>
</svg>